<svg xmlns="http://www.w3.org/2000/svg" viewBox="25 25 250 250">
  <defs>
    <style>.cls-1,.cls-2{fill:#fff;stroke:#8d9299}.cls-2{fill:#8d9299}</style>
  </defs>
  <path class="cls-1"
        d="M184.51 220l-13.36 13.13a20.22 20.22 0 0 0 4.9 7.64l16-15.74a20.19 20.19 0 0 0-7.54-5.03zM218.41 186.71l13.36-13.13a20.31 20.31 0 0 1 7.56 5l-16 15.73a20.17 20.17 0 0 1-4.92-7.6zM130.88 211.51l9.36 10.89s29.19-17.43 34.7-19.75l13.14-12.91-82-83.43-9.18 9s26.39 25.79 33.98 96.2zm80-78.57c-70.26-8.84-95.57-35.65-95.57-35.65l-9.18 9 82 83.44 13.14-12.91c2.41-5.47 20.35-34.34 20.35-34.34z"/>
  <path class="cls-1"
        d="M73.13 72.76S69 86.88 96.92 115.32l64.77 65.92s5.39 12.88 21.27 29.22a.85.85 0 0 0 1.15 0v-.05l12.33-12.11-2.11-2.14 2.1 2.14 12.32-12.11a.86.86 0 0 0 0-1.15c-16.06-16.17-28.84-21.78-28.84-21.78l-64.63-65.97C87.34 68.85 73.14 72.75 73.14 72.75"/>
  <path class="cls-2"
        d="M75.28 74.94l-2.15-2.18a8.64 8.64 0 0 0-.21 2 17.22 17.22 0 0 1 2.36.18zm131.29 113.44h-.05zM180 163.21l-64.72-65.92C87.33 68.85 73.14 72.75 73.14 72.75l2.15 2.19c6.16.83 18.78 5.23 37.75 24.54l64.77 65.92s12.78 5.61 28.84 21.79a.83.83 0 0 1 0 1.14l2.19-2.15a.86.86 0 0 0 0-1.15C192.83 168.82 180 163.21 180 163.21z"/>
  <path class="cls-1"
        d="M191 211.71l9.51-9.35-4-4.06-7.94 7.8a8.66 8.66 0 0 0 2.43 5.61zm13.47-21.22l-7.94 7.8 4 4.06L210 193a8.6 8.6 0 0 0-5.58-2.51z"/>
  <path class="cls-2" d="M204.42 190.49l-2.23 2.19a8.6 8.6 0 0 1 5.57 2.51L210 193a8.6 8.6 0 0 0-5.58-2.51z"/>
  <path class="cls-1"
        d="M170.87 172.23S169.82 185.9 208 210l-2.2-2.24.06.05L208 210c-23.39-38.55-37.08-37.74-37.08-37.74"/>
  <path class="cls-2"
        d="M171.35 175a22.69 22.69 0 0 1 4.07 1.91l-4.58-4.66a8.84 8.84 0 0 0 .51 2.75zm-.5-2.75l4.59 4.68c4.8 2.81 12 8.83 21.3 21.67l11.19 11.4c-23.39-38.59-37.08-37.78-37.08-37.78zM207.93 210l-11.17-11.4c1.62 2.24 3.3 4.68 5 7.36 1.97 1.3 4 2.63 6.17 4.04z"/>
  <path d="M97.54 84.83s-9.45 4.07-10.82 11 .86 4.51 2.19 2.23 9.78-10.84 11.57-10.41" fill="#8d9299"/>
</svg>
