<svg xmlns="http://www.w3.org/2000/svg" viewBox="0 0 357.67 238.61"><path d="M357.67 44.08v159.07c0 1.68-.61 3.22-1.35 3.42l-115.49 31.79c-1.53.43-2.8-1.21-2.8-3.64V4.33c0-2.43 1.27-4 2.8-3.45l115.49 39.7c.74.25 1.35 1.83 1.35 3.5zM224 .1l-.5.1a5.84 5.84 0 00-4.65 5.31v1.23L17.29 40.31 3 37a2.35 2.35 0 00-3 2.45v165a2.85 2.85 0 00.28 1.26A2.44 2.44 0 002 207.48l222.73 31.09a3.6 3.6 0 004-3.86V3.57c.01-2.44-2.12-4-4.73-3.47zm-54.1 59.18c-8.34 0-17.6 1.85-24.08 8.34-6.49 7.41-2.78 16.67-.93 25 3.71 25.93 18.53 50.94 1.85 76a143.38 143.38 0 01-11.11 12c-4.63 3.7-10.19 4.63-14.82 7.41-16.67 5.56-34.27.92-47.24-11.12-4.63-4.63-7.41-11.11-10.19-17.6-1.85-8.33-1.85-16.67-3.7-25a10 10 0 01-7.41-7.41c-.93-3.71 2.78-6.49 5.56-6.49 14.82.93 28.71-1.85 43.53-3.7 5.56 0 8.33 5.55 6.48 10.19a5.08 5.08 0 01-4.63 2.77c2.78 4.64 1.85 11.12 4.63 15.75 3.71 5.56 10.19 2.78 12-.93 3.71-12-5.55-22.23-8.33-32.41-4.63 2.77-7.41-1.86-8.34-4.64-.93-3.7 1.85-6.48 4.63-8.33.93-1.85 0-6.48-.92-6.48-3.71-1.86-6.49-2.78-7.41-6.49-.93-4.63 2.77-7.41 6.48-8.33-1.85-8.34.93-15.75 6.48-21.31s12-9.26 20.38-9.26c13-1.85 25.94-.93 39.83.93.93.92 2.78 1.85 3.7 3.7 1.9 3.71-2.73 7.41-6.44 7.41z"/></svg>
